<?xml version="1.0" encoding="utf-8"?>
<!-- Generator: Adobe Illustrator 22.0.1, SVG Export Plug-In . SVG Version: 6.00 Build 0)  -->
<svg version="1.1" id="Layer_1" xmlns="http://www.w3.org/2000/svg" xmlns:xlink="http://www.w3.org/1999/xlink" x="0px" y="0px"
	 viewBox="0 0 166.9 53" style="enable-background:new 0 0 166.9 53;" xml:space="preserve">
<style type="text/css">
	.st0{clip-path:url(#SVGID_2_);fill:#177B57;}
	.st1{clip-path:url(#SVGID_4_);fill:#177B57;}
</style>
<g>
	<defs>
		<rect id="SVGID_1_" x="1.3" y="1.3" width="164.4" height="50.5"/>
	</defs>
	<clipPath id="SVGID_2_">
		<use xlink:href="#SVGID_1_"  style="overflow:visible;"/>
	</clipPath>
	<path class="st0" d="M9.9,15.5V3.5c0-0.3,0-0.4,0.5-0.4C11,3.1,12.4,3,13.1,3c3.7,0,6,2.2,6,6.3c0,4.6-2.8,6.2-7.5,6.2H9.9z
		 M14.4,30.5c-3.9,0-4.6-0.7-4.6-6.1v-7.9h1.8c5.3,0,10,1.3,10,6.9C21.7,27.9,19,30.5,14.4,30.5 M64.3,18.5V19c0,0.3,0,0.4,0.3,0.4
		c4.5,0.1,4.5,0.6,4.5,4.1v2.8c0,3-1.9,4.8-5.8,4.8c-6.5,0-9.3-6.3-9.3-14.2c0-7.5,2-14.6,9.2-14.6c4.1,0,7.5,2.8,7.8,7.8
		c0,0.3,0.2,0.3,0.4,0.3h0.4c0-2-0.1-6.8-0.1-8.9h-0.3c-0.3,0-0.4,0-0.5,0.2L70.5,4h0c-2.1-1.9-5-2.7-7.8-2.7
		c-8.5,0-14.1,7.2-14.1,15.9c0,1.4,0.1,2.8,0.4,4.1L49,22.4c-0.5,6.7-4.4,8.7-8.5,8.7c-6.5,0-9.6-6-9.6-14.2c0-7.4,1.8-14.6,9-14.6
		c3.6,0,6.8,2.3,7.5,6.1c0,0.3,0.2,0.3,0.4,0.3h0.4c0-2-0.1-5.2-0.1-7.3h-0.3c-0.3,0-0.4,0-0.5,0.2l-0.4,2.1h0
		c-2-1.8-4.8-2.7-7.5-2.7c-8.3,0-13.8,7.2-13.8,15.9c0,0.8,0.1,1.6,0.2,2.3h-0.1c-1.7-2.4-5-3.6-9-3.7v-0.1c4.3-0.9,7.3-3.1,7.3-6.8
		c0-5.6-6.1-7-10.9-7C11.7,1.9,8.7,2,7.8,2c-2.1,0-4.5,0-6.5-0.1v0.5c0,0.3,0,0.4,0.3,0.4c3.5,0.1,3.5,0.6,3.5,6.1v15.9
		c0,5.5,0,6-3.5,6.1c-0.3,0-0.4,0.1-0.4,0.4v0.5c2.1,0,4-0.1,6.1-0.1c2.6,0,3.8,0.1,7.2,0.1c7.3,0,11.8-3.5,12.1-7.9h0.1
		c2.2,5.2,7.1,8.5,13.5,8.5c3,0,5.8-1,8.1-2.8h0l0.4,2.3c0,0.2,0.2,0.2,0.5,0.2h0.3c0-1.4,0-5.4,0.1-8.3h0.1
		C52,29.1,57,32.3,63,32.3c5.8,0,8-3.6,10.5-3.6c0.2,0,0.3-0.1,0.3-0.4c0-0.4-0.1-1.7-0.1-2.5v-2c0-3.7,0-4.2,2.5-4.3
		c0.3,0,0.3-0.1,0.3-0.4v-0.5c-2.1,0-3.4,0.1-5.5,0.1C68.9,18.6,66.3,18.6,64.3,18.5"/>
</g>
<g>
	<defs>
		<rect id="SVGID_3_" x="1.3" y="1.3" width="164.4" height="50.5"/>
	</defs>
	<clipPath id="SVGID_4_">
		<use xlink:href="#SVGID_3_"  style="overflow:visible;"/>
	</clipPath>
	<path class="st1" d="M32.5,51.6v-0.3c0-0.1,0-0.1-0.1-0.1c-0.9-0.2-0.9-0.2-0.9-1.6v-5.3c0-0.1,0-0.1,0.1-0.1h0.8
		c1,0,1.5,0.1,1.7,1.4c0,0.1,0,0.1,0.1,0.1h0.3c0-0.5,0-1.5,0-2.1c-0.5,0-1.1,0-2.1,0h-2.8c-1,0-1.6,0-2.1,0c0,0.6,0,1.7,0,2.3h0.3
		c0.1,0,0.1,0,0.1-0.1c0.2-1.5,0.7-1.6,1.7-1.6h0.8c0.1,0,0.1,0,0.1,0.1v5.3c0,1.5,0,1.5-0.9,1.6c-0.1,0-0.1,0-0.1,0.1v0.3
		c0.5,0,1,0,1.5,0C31.5,51.6,32,51.6,32.5,51.6 M53,49.3c0-1.4-1.2-2-2.5-2v0c1-0.2,1.8-0.8,1.8-1.8c0-1.5-1.6-1.9-2.9-1.9
		c-0.5,0-0.7,0-1.1,0c-0.6,0-1.1,0-1.6,0v0.3c0,0.1,0,0.1,0.1,0.1c0.9,0.2,0.9,0.2,0.9,1.6v3.9c0,1.5,0,1.5-0.9,1.6
		c-0.1,0-0.1,0-0.1,0.1v0.3c0.6,0,1.1,0,1.6,0c0.6,0,0.9,0,1.6,0C51.8,51.6,53,50.6,53,49.3 M51.8,49.3c0,1.2-0.7,1.7-2.1,1.7
		c-1.1,0-1.1-0.1-1.1-1.6v-1.9h0.5C50.8,47.6,51.8,48.1,51.8,49.3 M51.1,45.6c0,1.2-0.7,1.6-2,1.6h-0.5v-2.9c0-0.1,0-0.1,0.1-0.1
		c0.2,0,0.6,0,0.8,0C50.5,44.1,51.1,44.5,51.1,45.6 M88.4,51.7c0-0.6,0-2.1,0-2.6h-0.3c-0.1,0-0.1,0-0.1,0.1c-0.2,1.5-1,2.1-2.2,2.1
		c-1.7,0-2.5-1.4-2.5-3.7c0-1.7,0.4-3.6,2.3-3.6c1.1,0,1.7,0.7,2,1.9c0,0.1,0,0.1,0.1,0.1H88c0-0.5,0-1.8,0-2.4h-0.2
		c-0.1,0-0.1,0-0.2,0.1l-0.2,0.3h0c-0.4-0.3-1.1-0.4-1.8-0.4c-2.2,0-3.5,1.8-3.5,4.1c0,2.8,1.5,4.2,3.7,4.2c1.1,0,1.8-0.3,2.1-0.4h0
		l0.2,0.3c0,0.1,0.1,0.1,0.2,0.1H88.4z M38.1,51.6c-0.4,0-0.9,0-1.2,0v-0.3c0,0,0-0.1,0.1-0.1c0.7-0.1,0.7-0.1,0.7-1.1V49h-2.5v1.1
		c0,1,0,1,0.7,1.1c0.1,0,0.1,0,0.1,0.1v0.3c-0.4,0-0.9,0-1.2,0c-0.4,0-0.9,0-1.2,0v-0.3c0,0,0-0.1,0.1-0.1c0.7-0.1,0.7-0.1,0.7-1.1
		v-2.6c0-1,0-1-0.7-1.1c-0.1,0-0.1,0-0.1-0.1v-0.3c0.4,0,0.9,0,1.2,0c0.4,0,0.9,0,1.2,0v0.3c0,0,0,0.1-0.1,0.1
		c-0.7,0.1-0.7,0.1-0.7,1.1v0.9h2.5v-0.9c0-1,0-1-0.7-1.1c-0.1,0-0.1,0-0.1-0.1v-0.3c0.4,0,0.9,0,1.2,0s0.9,0,1.2,0v0.3
		c0,0,0,0.1-0.1,0.1c-0.7,0.1-0.7,0.1-0.7,1.1v2.6c0,1,0,1,0.7,1.1c0.1,0,0.1,0,0.1,0.1v0.3C39,51.6,38.5,51.6,38.1,51.6 M42.7,51.6
		H41c-0.4,0-0.9,0-1.2,0v-0.3c0,0,0-0.1,0.1-0.1c0.7-0.1,0.7-0.1,0.7-1.1v-2.6c0-1,0-1-0.7-1.1c-0.1,0-0.1,0-0.1-0.1v-0.3
		c0.4,0,0.9,0,1.2,0h1.3c0.7,0,1.1,0,1.5,0c0,0.4,0,1.1,0,1.5h-0.2c0,0-0.1,0-0.1,0c-0.1-0.9-0.5-1-1.1-1h-0.8c-0.1,0-0.1,0-0.1,0.1
		v1.9h0.1c0.7,0,0.9-0.1,0.9-0.7c0-0.1,0-0.1,0.1-0.1h0.3c0,0.3,0,0.7,0,1c0,0.4,0,0.6,0,0.9h-0.3c0,0-0.1,0-0.1,0
		c-0.1-0.7-0.3-0.8-0.9-0.8h-0.1V50c0,1,0,1.1,0.7,1.1h0.5c0.7,0,1-0.2,1.1-1.1c0,0,0-0.1,0.1-0.1h0.3c0,0.4,0,1.3,0,1.6
		C43.9,51.6,43.4,51.6,42.7,51.6 M56.2,51.7c-1.5,0-2.7-1.1-2.7-2.8c0-2,1.2-3,2.7-3c1.5,0,2.7,1.1,2.7,2.8
		C58.8,50.8,57.6,51.7,56.2,51.7 M56.1,46.4c-1,0-1.5,0.8-1.5,2.5c0,1.7,0.7,2.4,1.7,2.4c1,0,1.5-0.8,1.5-2.5
		C57.8,47.1,57.1,46.4,56.1,46.4 M59.7,51.4l-0.1,0.2c0,0-0.1,0-0.1,0h-0.1c0-0.4,0-1.4,0-1.8h0.3c0,0,0.1,0,0.1,0.1
		c0.2,0.9,0.6,1.3,1.4,1.3c0.7,0,1.1-0.3,1.1-0.8c0-1.5-2.8-1-2.8-2.9c0-0.9,0.7-1.6,1.7-1.6c0.4,0,0.8,0.1,1.1,0.4l0.1-0.2
		c0-0.1,0-0.1,0.1-0.1h0.2c0,0.4,0,1.3,0,1.6h-0.3c0,0-0.1,0-0.1-0.1c-0.2-0.7-0.5-1.3-1.2-1.3c-0.6,0-0.9,0.4-0.9,0.7
		c0,1.5,2.9,1,2.9,2.9c0,1.2-1,1.7-1.9,1.7C60.4,51.7,60,51.6,59.7,51.4 M65.5,51.6c-0.4,0-0.9,0-1.2,0v-0.3c0,0,0-0.1,0.1-0.1
		c0.7-0.1,0.7-0.1,0.7-1.1v-3.5c0-0.1,0-0.1-0.1-0.1h-0.5c-0.7,0-1,0.1-1.2,1.1c0,0.1,0,0.1-0.1,0.1H63c0-0.4,0-1.2,0-1.6
		c0.3,0,0.8,0,1.5,0h2.1c0.7,0,1.1,0,1.5,0c0,0.4,0,1.3,0,1.6h-0.2c-0.1,0-0.1,0-0.1-0.1c-0.1-1.1-0.5-1.1-1.2-1.1h-0.4
		c-0.1,0-0.1,0-0.1,0.1v3.5c0,1,0,1,0.7,1.1c0.1,0,0.1,0,0.1,0.1v0.3C66.4,51.6,65.9,51.6,65.5,51.6 M70.8,51.7
		c-1.5,0-2.7-1.1-2.7-2.8c0-2,1.2-3,2.6-3c1.5,0,2.7,1.1,2.7,2.8C73.5,50.8,72.2,51.7,70.8,51.7 M70.7,46.4c-1,0-1.5,0.8-1.5,2.5
		c0,1.7,0.7,2.4,1.7,2.4c1,0,1.5-0.8,1.5-2.5C72.4,47.1,71.7,46.4,70.7,46.4 M78.3,51.7c-0.1-0.3-0.4-0.6-0.6-0.9l-2.6-3.7h0v2.2
		c0,1.7,0,1.9,1,1.9c0.1,0,0.1,0,0.1,0.1v0.3c-0.4,0-0.9,0-1.3,0c-0.4,0-0.7,0-1,0v-0.3c0,0,0-0.1,0.1-0.1c0.7-0.1,0.7-0.3,0.7-1.9
		v-1.7c0-1,0-1-0.7-1.1c-0.1,0-0.1,0-0.1-0.1v-0.3c0.3,0,0.8,0,1,0c0.3,0,0.6,0,0.8,0l2.8,4h0v-1.7c0-1.7,0-1.8-1-1.9c0,0,0,0,0-0.1
		v-0.3c0.4,0,0.9,0,1.3,0c0.4,0,0.7,0,1.1,0v0.3c0,0,0,0.1-0.1,0.1c-0.7,0.1-0.7,0.3-0.7,1.9v3.4H78.3z M91.6,51.7
		c-1.5,0-2.7-1.1-2.7-2.8c0-2,1.2-3,2.6-3c1.5,0,2.7,1.1,2.7,2.8C94.3,50.8,93.1,51.7,91.6,51.7 M91.6,46.4c-1,0-1.5,0.8-1.5,2.5
		c0,1.7,0.7,2.4,1.7,2.4c1,0,1.5-0.8,1.5-2.5C93.2,47.1,92.6,46.4,91.6,46.4 M99.1,51.7c-0.2-0.3-0.4-0.6-0.6-0.9l-2.6-3.7h0v2.2
		c0,1.7,0,1.9,1,1.9c0,0,0.1,0,0.1,0.1v0.3c-0.4,0-0.9,0-1.3,0c-0.4,0-0.7,0-1,0v-0.3c0,0,0-0.1,0.1-0.1c0.7-0.1,0.7-0.3,0.7-1.9
		v-1.7c0-1,0-1-0.7-1.1c-0.1,0-0.1,0-0.1-0.1v-0.3c0.3,0,0.8,0,1,0c0.3,0,0.6,0,0.9,0l2.8,4h0v-1.7c0-1.7,0-1.8-1-1.9
		c-0.1,0-0.1,0-0.1-0.1v-0.3c0.4,0,0.9,0,1.3,0c0.4,0,0.7,0,1,0v0.3c0,0,0,0.1-0.1,0.1c-0.7,0.1-0.7,0.3-0.7,1.9v3.4H99.1z
		 M101.5,51.4l-0.1,0.2c0,0-0.1,0-0.1,0h-0.1c0-0.4,0-1.4,0-1.8h0.3c0,0,0.1,0,0.1,0.1c0.2,0.9,0.6,1.3,1.4,1.3
		c0.7,0,1.1-0.3,1.1-0.8c0-1.5-2.8-1-2.8-2.9c0-0.9,0.7-1.6,1.7-1.6c0.4,0,0.8,0.1,1.1,0.3l0.1-0.2c0,0,0.1-0.1,0.1-0.1h0.2
		c0,0.4,0,1.2,0,1.6H104c0,0-0.1,0-0.1-0.1c-0.1-0.6-0.5-1.1-1.2-1.1c-0.6,0-0.9,0.4-0.9,0.7c0,1.5,2.9,1,2.9,2.9
		c0,1.2-1,1.7-1.9,1.7C102.1,51.7,101.8,51.6,101.5,51.4 M107.9,51.7c-1.6,0-2.3-0.7-2.3-2.1v-2.1c0-1,0-1-0.7-1.1
		c-0.1,0-0.1,0-0.1-0.1v-0.3c0.4,0,0.9,0,1.2,0c0.4,0,0.9,0,1.2,0v0.3c0,0,0,0.1-0.1,0.1c-0.7,0.1-0.7,0.1-0.7,1.1v2.2
		c0,0.8,0.4,1.3,1.4,1.3c0.9,0,1.4-0.5,1.4-1.4v-1.3c0-1.7,0-1.8-1-1.9c0,0,0,0,0-0.1v-0.3c0.4,0,0.9,0,1.3,0c0.4,0,0.6,0,0.9,0v0.3
		c0,0,0,0.1-0.1,0.1c-0.6,0.1-0.6,0.2-0.6,1.9v1.2C110,51.1,109.3,51.7,107.9,51.7 M114.1,51.6h-1.9c-0.4,0-0.8,0-1.2,0v-0.3
		c0,0,0-0.1,0.1-0.1c0.7-0.1,0.7-0.1,0.7-1.1v-2.6c0-1,0-1-0.7-1.1c-0.1,0-0.1,0-0.1-0.1v-0.3c0.4,0,0.9,0,1.2,0c0.4,0,1,0,1.4,0
		v0.3c0,0,0,0.1-0.1,0.1c-0.8,0.1-0.8,0.1-0.8,1.1V50c0,1,0,1.1,0.7,1.1h0.4c0.7,0,1-0.2,1.1-1.3c0-0.1,0-0.1,0.1-0.1h0.3
		c0,0.4,0,1.4,0,1.8C115,51.6,114.7,51.6,114.1,51.6 M117.4,51.6c-0.4,0-0.9,0-1.2,0v-0.3c0,0,0-0.1,0.1-0.1
		c0.7-0.1,0.7-0.1,0.7-1.1v-3.5c0-0.1,0-0.1-0.1-0.1h-0.5c-0.7,0-1,0.1-1.2,1.1c0,0.1,0,0.1-0.1,0.1h-0.2c0-0.4,0-1.2,0-1.6
		c0.3,0,0.8,0,1.5,0h2.1c0.7,0,1.1,0,1.5,0c0,0.4,0,1.3,0,1.6h-0.2c0,0-0.1,0-0.1-0.1c-0.1-1.1-0.5-1.1-1.2-1.1H118
		c-0.1,0-0.1,0-0.1,0.1v3.5c0,1,0,1,0.7,1.1c0.1,0,0.1,0,0.1,0.1v0.3C118.3,51.6,117.8,51.6,117.4,51.6 M121.4,51.6
		c-0.4,0-0.9,0-1.2,0v-0.3c0,0,0-0.1,0.1-0.1c0.7-0.1,0.7-0.1,0.7-1.1v-2.6c0-1,0-1-0.7-1.1c-0.1,0-0.1,0-0.1-0.1v-0.3
		c0.4,0,0.9,0,1.2,0c0.4,0,0.9,0,1.2,0v0.3c0,0,0,0.1-0.1,0.1c-0.7,0.1-0.7,0.1-0.7,1.1v2.6c0,1,0,1,0.7,1.1c0.1,0,0.1,0,0.1,0.1
		v0.3C122.3,51.6,121.8,51.6,121.4,51.6 M127.6,51.7c-0.1-0.3-0.4-0.6-0.6-0.9l-2.6-3.7h0v2.2c0,1.7,0,1.9,1,1.9c0,0,0.1,0,0.1,0.1
		v0.3c-0.4,0-0.9,0-1.3,0c-0.4,0-0.7,0-1,0v-0.3c0,0,0-0.1,0.1-0.1c0.7-0.1,0.7-0.3,0.7-1.9v-1.7c0-1,0-1-0.7-1.1
		c-0.1,0-0.1,0-0.1-0.1v-0.3c0.3,0,0.8,0,1,0c0.3,0,0.6,0,0.9,0l2.8,4v-1.7c0-1.7,0-1.8-1-1.9c-0.1,0-0.1,0-0.1-0.1v-0.3
		c0.4,0,0.9,0,1.3,0c0.4,0,0.7,0,1,0v0.3c0,0,0,0.1-0.1,0.1c-0.7,0.1-0.7,0.3-0.7,1.9v3.4H127.6z M134.5,49.4
		C134.5,49.5,134.5,49.5,134.5,49.4c-0.6,0.2-0.6,0.2-0.6,0.9v0.3c0,0.1,0,0.4,0,0.5c0,0.1,0,0.1-0.1,0.1c-0.5,0-0.8,0.6-2,0.6
		c-1.5,0-2.6-1-2.6-2.9c0-1.6,0.9-2.9,2.6-2.9c0.5,0,1,0.1,1.3,0.3l0.2-0.2c0,0,0.1-0.1,0.1-0.1h0.2c0,0.4,0,1.3,0,1.7h-0.3
		c0,0-0.1,0-0.1-0.1c-0.2-0.8-0.6-1.2-1.4-1.2c-1.3,0-1.6,1.3-1.6,2.4c0,1.2,0.3,2.5,1.6,2.5c0.7,0,1-0.3,1-0.9v-0.2
		c0-0.6,0-0.6-0.9-0.7c0,0-0.1,0-0.1-0.1v-0.3c0.4,0,0.9,0,1.3,0c0.4,0,0.7,0,1.1,0V49.4z M143.8,48.4c0,0.1,0,0.1-0.1,0.1
		c-0.7,0.2-0.7,0.2-0.7,1.2V50c0,0.2,0,0.5,0,0.7c0,0.1,0,0.1-0.1,0.1c-0.7,0-1,1-2.7,1c-2.1,0-3.6-1.4-3.6-4.2
		c0-2.3,1.2-4.1,3.6-4.1c0.8,0,1.4,0.2,1.8,0.4h0l0.2-0.3c0-0.1,0.1-0.1,0.2-0.1h0.2c0,0.6,0,1.7,0,2.3h-0.3c-0.1,0-0.1,0-0.1-0.1
		c-0.3-1.2-0.9-1.7-2-1.7c-1.9,0-2.3,1.9-2.3,3.6c0,1.8,0.5,3.7,2.5,3.7c1,0,1.6-0.5,1.6-1.3v-0.3c0-0.9,0-1-1.2-1.1
		c-0.1,0-0.1,0-0.1-0.1V48c0.5,0,1,0,1.6,0c0.6,0,0.9,0,1.5,0V48.4z M147,48.7L147,48.7c1.7,0.3,1.1,2.4,1.8,2.4
		c0.2,0,0.3-0.1,0.4-0.2l0.2,0.2c0,0,0,0,0,0c0,0,0,0,0,0c-0.2,0.3-0.6,0.5-0.9,0.5c-0.8,0-1-0.7-1.2-1.5c-0.2-0.8-0.3-1.2-1.1-1.2
		h-0.6v1.2c0,1,0,1,0.7,1.1c0.1,0,0.1,0,0.1,0.1v0.3c-0.4,0-0.9,0-1.3,0c-0.4,0-0.9,0-1.2,0v-0.3c0,0,0-0.1,0.1-0.1
		c0.7-0.1,0.7-0.1,0.7-1.1v-2.6c0-1,0-1-0.7-1.1c-0.1,0-0.1,0-0.1-0.1v-0.3c0.4,0,0.8,0,1.2,0c0.4,0,1,0,1.2,0
		c1.1,0,2.1,0.3,2.1,1.3C148.5,47.9,148.2,48.5,147,48.7 M146.4,46.5c-0.3,0-0.8,0-0.8,0.1v1.9h0.5c0.8,0,1.3-0.3,1.3-1.1
		C147.5,46.8,147,46.5,146.4,46.5 M152.1,51.7c-1.5,0-2.7-1.1-2.7-2.8c0-2,1.2-3,2.7-3c1.5,0,2.7,1.1,2.7,2.8
		C154.7,50.8,153.5,51.7,152.1,51.7 M152,46.4c-1,0-1.5,0.8-1.5,2.5c0,1.7,0.7,2.4,1.7,2.4c1,0,1.5-0.8,1.5-2.5
		C153.6,47.1,153,46.4,152,46.4 M158,51.7c-1.6,0-2.3-0.7-2.3-2.1v-2.1c0-1,0-1-0.7-1.1c-0.1,0-0.1,0-0.1-0.1v-0.3
		c0.4,0,0.9,0,1.2,0c0.4,0,0.9,0,1.2,0v0.3c0,0,0,0.1-0.1,0.1c-0.7,0.1-0.7,0.1-0.7,1.1v2.2c0,0.8,0.4,1.3,1.4,1.3
		c0.9,0,1.4-0.5,1.4-1.4v-1.3c0-1.7,0-1.8-1-1.9c0,0,0,0,0-0.1v-0.3c0.4,0,0.9,0,1.3,0c0.4,0,0.6,0,0.9,0v0.3c0,0,0,0.1-0.1,0.1
		c-0.6,0.1-0.6,0.2-0.6,1.9v1.2C160.1,51.1,159.4,51.7,158,51.7 M163.2,49.3h-0.4v0.8c0,1,0,1,0.8,1.1c0.1,0,0.1,0,0.1,0.1v0.3
		c-0.4,0-1,0-1.4,0c-0.4,0-0.9,0-1.2,0v-0.3c0,0,0-0.1,0.1-0.1c0.7-0.1,0.7-0.1,0.7-1.1v-2.6c0-1,0-1-0.7-1.1c-0.1,0-0.1,0-0.1-0.1
		v-0.3c0.4,0,0.9,0,1.2,0c0.4,0,0.8,0,1.1,0c1,0,2.3,0.3,2.3,1.5C165.7,48.3,165.3,49.3,163.2,49.3 M163.5,46.5
		c-0.3,0-0.7,0-0.7,0.1v2.3h0.4c0.9,0,1.4-0.4,1.4-1.3C164.6,46.8,164.1,46.5,163.5,46.5"/>
</g>
</svg>
